<svg width="684" height="535" viewBox="0 0 684 535" fill="none" xmlns="http://www.w3.org/2000/svg">
<path d="M239.003 294.889L425.987 107.023L649.789 330.284C597.486 450.45 478.086 534.485 339.27 534.485C217.756 534.485 111.12 470.093 51.3428 373.44L188.87 244.519L239.003 294.889Z" fill="#696FE6"/>
<path d="M265.073 141.22C289.118 141.22 307.819 122.519 307.819 98.4741C307.819 74.4294 289.118 55.7279 265.073 55.7279C241.029 55.7279 222.327 74.4294 222.327 98.4741C222.327 122.519 242.364 141.22 265.073 141.22Z" fill="#696FE6"/>
<path fill-rule="evenodd" clip-rule="evenodd" d="M0 192.515C0 -0.998993 148.501 -149.5 342.016 -149.5C535.531 -149.5 684 -0.99794 684 192.515C684 210.135 682.697 227.457 680.182 244.39L663.177 241.864C665.569 225.764 666.809 209.286 666.809 192.515C666.809 8.49437 526.035 -132.309 342.016 -132.309C157.996 -132.309 17.1912 8.49544 17.1912 192.515C17.1912 209.286 18.431 225.764 20.8227 241.864L3.81812 244.39C1.30265 227.457 0 210.135 0 192.515Z" fill="#696FE6"/>
</svg>
