<svg width="229" height="374" viewBox="0 0 229 374" fill="none" xmlns="http://www.w3.org/2000/svg">
<path d="M130.683 242.985L232.922 140.263L355.294 262.338C326.696 328.043 261.41 373.992 185.507 373.992C119.065 373.992 60.7583 338.784 28.0732 285.936L103.271 215.443L130.683 242.985Z" fill="#696FE6"/>
<path d="M144.937 158.961C158.085 158.961 168.31 148.736 168.31 135.588C168.31 122.441 158.085 112.216 144.937 112.216C131.79 112.216 121.564 122.441 121.564 135.588C121.564 148.736 132.521 158.961 144.937 158.961Z" fill="#696FE6"/>
<path fill-rule="evenodd" clip-rule="evenodd" d="M0 187.009C0 81.1982 81.1982 0 187.009 0C292.82 0 374 81.1987 374 187.009C374 196.643 373.288 206.114 371.912 215.373L362.615 213.992C363.922 205.189 364.6 196.179 364.6 187.009C364.6 86.389 287.627 9.39985 187.009 9.39985C86.3895 9.39985 9.39985 86.3896 9.39985 187.009C9.39985 196.179 10.0778 205.189 11.3855 213.992L2.08769 215.373C0.712268 206.114 0 196.643 0 187.009Z" fill="#696FE6"/>
</svg>
