<svg width="160" height="160" viewBox="0 0 160 160" fill="none" xmlns="http://www.w3.org/2000/svg">
<g clip-path="url(#clip0_4011_10779)">
<path d="M135.404 117.441C134.913 117.274 134.376 117.309 133.91 117.537C133.445 117.765 133.089 118.168 132.919 118.658L126.633 137.49L124.845 133.913C124.614 133.451 124.21 133.101 123.72 132.938C123.231 132.775 122.697 132.812 122.236 133.043C121.775 133.274 121.424 133.678 121.261 134.167C121.098 134.657 121.136 135.191 121.366 135.652L125.217 143.403C125.387 143.748 125.656 144.035 125.99 144.226C126.323 144.418 126.706 144.506 127.089 144.479C127.473 144.453 127.84 144.312 128.144 144.077C128.447 143.841 128.674 143.52 128.795 143.155L136.547 119.875C136.708 119.401 136.679 118.882 136.466 118.427C136.253 117.973 135.872 117.62 135.404 117.441Z" fill="#696FE5"/>
<path d="M158.062 16.4961H49.4662C48.9522 16.4961 48.4593 16.7003 48.0959 17.0637C47.7325 17.4271 47.5283 17.92 47.5283 18.434V158.061C47.5283 158.575 47.7325 159.068 48.0959 159.431C48.4593 159.795 48.9522 159.999 49.4662 159.999H142.609C143.122 159.997 143.614 159.791 143.975 159.427L159.503 143.924C159.828 143.563 160.006 143.093 160 142.608V18.3843C159.987 17.879 159.777 17.3988 159.415 17.046C159.053 16.6933 158.568 16.4959 158.062 16.4961ZM144.497 153.39V144.496H153.392L144.497 153.39ZM156.125 140.62H142.609C142.095 140.62 141.602 140.824 141.239 141.188C140.875 141.551 140.671 142.044 140.671 142.558V156.123H51.4041V20.3719H156.125V140.62Z" fill="#696FE5"/>
<path d="M109.814 10.7822C109.827 11.0367 109.89 11.2861 109.999 11.5162C110.109 11.7463 110.262 11.9526 110.452 12.1234C110.641 12.2941 110.862 12.4259 111.102 12.5112C111.342 12.5965 111.596 12.6337 111.851 12.6207C112.105 12.6076 112.355 12.5446 112.585 12.4351C112.815 12.3257 113.021 12.172 113.192 11.9828C113.363 11.7936 113.495 11.5727 113.58 11.3326C113.665 11.0925 113.703 10.8379 113.689 10.5834L113.292 2.83189C113.283 2.57619 113.222 2.32498 113.114 2.09313C113.005 1.86128 112.852 1.65349 112.662 1.48207C112.472 1.31065 112.25 1.17907 112.008 1.09513C111.766 1.01119 111.51 0.976592 111.255 0.99338L2.8324 6.88157C2.5778 6.89429 2.32821 6.95711 2.09793 7.06645C1.86765 7.17578 1.66121 7.32947 1.49042 7.51872C1.31964 7.70797 1.18787 7.92905 1.10267 8.16931C1.01746 8.40956 0.980496 8.66427 0.993886 8.91883L8.59637 148.397C8.60909 148.651 8.67192 148.901 8.78125 149.131C8.89058 149.362 9.04428 149.568 9.23353 149.739C9.42277 149.91 9.64386 150.041 9.88411 150.126C10.1244 150.212 10.3791 150.249 10.6336 150.235L41.8137 148.521C42.0683 148.508 42.3179 148.445 42.5482 148.336C42.7785 148.227 42.9849 148.073 43.1557 147.884C43.3265 147.695 43.4583 147.474 43.5435 147.233C43.6287 146.993 43.6656 146.738 43.6523 146.484C43.6538 146.225 43.6005 145.968 43.4959 145.731C43.3914 145.494 43.2379 145.282 43.0455 145.108C42.8531 144.934 42.6263 144.803 42.3797 144.724C42.1332 144.644 41.8726 144.617 41.615 144.645L12.3728 146.235L4.96904 10.658L109.516 4.96853L109.814 10.7822Z" fill="#696FE5"/>
<path d="M41.6147 35.7754L19.975 36.9431C19.461 36.9431 18.9681 37.1473 18.6047 37.5107C18.2413 37.8741 18.0371 38.367 18.0371 38.881C18.0371 39.3949 18.2413 39.8878 18.6047 40.2513C18.9681 40.6147 19.461 40.8189 19.975 40.8189L41.6147 39.6512C41.8693 39.6384 42.1189 39.5756 42.3492 39.4663C42.5795 39.3569 42.7859 39.2032 42.9567 39.014C43.1275 38.8248 43.2593 38.6037 43.3445 38.3634C43.4297 38.1232 43.4666 37.8685 43.4532 37.6139C43.4407 37.1303 43.2429 36.6699 42.9008 36.3278C42.5587 35.9857 42.0984 35.788 41.6147 35.7754Z" fill="#696FE5"/>
<path d="M41.6149 51.4033L20.8695 52.4965C20.3556 52.4965 19.8627 52.7007 19.4992 53.0641C19.1358 53.4275 18.9316 53.9204 18.9316 54.4344C18.9316 54.9483 19.1358 55.4412 19.4992 55.8047C19.8627 56.1681 20.3556 56.3723 20.8695 56.3723L41.6646 55.2791C41.9192 55.2664 42.1687 55.2035 42.399 55.0942C42.6293 54.9849 42.8357 54.8312 43.0065 54.6419C43.1773 54.4527 43.3091 54.2316 43.3943 53.9913C43.4795 53.7511 43.5165 53.4964 43.5031 53.2418C43.4901 52.7497 43.2855 52.2821 42.9328 51.9387C42.58 51.5952 42.1072 51.4031 41.6149 51.4033Z" fill="#696FE5"/>
<path d="M41.6154 66.9316L21.7396 68.0248C21.2257 68.0248 20.7328 68.229 20.3694 68.5924C20.0059 68.9558 19.8018 69.4487 19.8018 69.9627C19.8018 70.4766 20.0059 70.9696 20.3694 71.333C20.7328 71.6964 21.2257 71.9006 21.7396 71.9006L41.6154 70.8074C41.87 70.7947 42.1196 70.7319 42.3499 70.6225C42.5802 70.5132 42.7866 70.3595 42.9574 70.1702C43.1282 69.981 43.2599 69.7599 43.3451 69.5197C43.4303 69.2794 43.4673 69.0247 43.4539 68.7701C43.4539 68.2825 43.2602 67.8149 42.9154 67.4701C42.5706 67.1253 42.103 66.9316 41.6154 66.9316Z" fill="#696FE5"/>
<path d="M41.6153 82.4336L22.5346 83.5268C22.0206 83.5268 21.5277 83.7309 21.1643 84.0944C20.8009 84.4578 20.5967 84.9507 20.5967 85.4646C20.5967 85.9786 20.8009 86.4715 21.1643 86.8349C21.5277 87.1984 22.0206 87.4025 22.5346 87.4025L41.6153 86.3094C42.1251 86.2773 42.6016 86.0454 42.9413 85.6638C43.2809 85.2823 43.4562 84.7822 43.429 84.2721C43.4323 84.0318 43.3878 83.7933 43.2981 83.5704C43.2084 83.3475 43.0754 83.1446 42.9066 82.9736C42.7379 82.8025 42.5368 82.6667 42.3152 82.574C42.0935 82.4813 41.8556 82.4336 41.6153 82.4336Z" fill="#696FE5"/>
<path d="M41.6148 98.0371L23.3539 99.0309C22.8399 99.0309 22.347 99.2351 21.9836 99.5985C21.6202 99.9619 21.416 100.455 21.416 100.969C21.416 101.483 21.6202 101.976 21.9836 102.339C22.347 102.702 22.8399 102.907 23.3539 102.907L41.5899 101.888C41.8445 101.875 42.0941 101.812 42.3244 101.703C42.5547 101.594 42.7611 101.44 42.9319 101.251C43.1027 101.062 43.2344 100.841 43.3197 100.6C43.4049 100.36 43.4418 100.105 43.4284 99.8508C43.41 99.3756 43.213 98.9249 42.8768 98.5887C42.5406 98.2525 42.0899 98.0555 41.6148 98.0371Z" fill="#696FE5"/>
<path d="M41.6153 113.539L24.224 114.483C23.7101 114.483 23.2172 114.687 22.8537 115.051C22.4903 115.414 22.2861 115.907 22.2861 116.421C22.2861 116.935 22.4903 117.428 22.8537 117.791C23.2172 118.155 23.7101 118.359 24.224 118.359L41.6153 117.415C41.8699 117.402 42.1195 117.339 42.3498 117.23C42.5801 117.121 42.7865 116.967 42.9573 116.778C43.1281 116.588 43.2598 116.367 43.345 116.127C43.4302 115.887 43.4672 115.632 43.4538 115.378C43.4413 114.894 43.2435 114.434 42.9014 114.091C42.5593 113.749 42.099 113.552 41.6153 113.539Z" fill="#696FE5"/>
<path d="M88.2484 35.7762H119.279C119.793 35.7762 120.286 35.572 120.65 35.2086C121.013 34.8451 121.217 34.3522 121.217 33.8383C121.217 33.3243 121.013 32.8314 120.65 32.468C120.286 32.1046 119.793 31.9004 119.279 31.9004H88.2484C87.7345 31.9004 87.2416 32.1046 86.8781 32.468C86.5147 32.8314 86.3105 33.3243 86.3105 33.8383C86.3105 34.3522 86.5147 34.8451 86.8781 35.2086C87.2416 35.572 87.7345 35.7762 88.2484 35.7762Z" fill="#696FE5"/>
<path d="M64.9936 51.4031H142.608C143.122 51.4031 143.615 51.1989 143.979 50.8355C144.342 50.4721 144.546 49.9792 144.546 49.4652C144.546 48.9513 144.342 48.4584 143.979 48.0949C143.615 47.7315 143.122 47.5273 142.608 47.5273H64.9936C64.4796 47.5273 63.9867 47.7315 63.6233 48.0949C63.2598 48.4584 63.0557 48.9513 63.0557 49.4652C63.0557 49.9792 63.2598 50.4721 63.6233 50.8355C63.9867 51.1989 64.4796 51.4031 64.9936 51.4031Z" fill="#696FE5"/>
<path d="M64.9936 66.9315H142.608C143.063 66.8581 143.476 66.6252 143.775 66.2747C144.073 65.9242 144.237 65.4789 144.237 65.0185C144.237 64.5582 144.073 64.1129 143.775 63.7623C143.476 63.4118 143.063 63.1789 142.608 63.1055H64.9936C64.4796 63.1055 63.9867 63.3096 63.6233 63.6731C63.2598 64.0365 63.0557 64.5294 63.0557 65.0434C63.0557 65.5573 63.2598 66.0502 63.6233 66.4136C63.9867 66.7771 64.4796 66.9812 64.9936 66.9812V66.9315Z" fill="#696FE5"/>
<path d="M64.9936 82.4344H88.273C88.787 82.4344 89.2799 82.2302 89.6433 81.8668C90.0068 81.5033 90.2109 81.0104 90.2109 80.4965C90.2109 79.9825 90.0068 79.4896 89.6433 79.1262C89.2799 78.7628 88.787 78.5586 88.273 78.5586H64.9936C64.4796 78.5586 63.9867 78.7628 63.6233 79.1262C63.2598 79.4896 63.0557 79.9825 63.0557 80.4965C63.0557 81.0104 63.2598 81.5033 63.6233 81.8668C63.9867 82.2302 64.4796 82.4344 64.9936 82.4344Z" fill="#696FE5"/>
<path d="M64.9936 97.8875H142.608C143.122 97.8875 143.615 97.6833 143.979 97.3199C144.342 96.9565 144.546 96.4636 144.546 95.9496C144.546 95.4357 144.342 94.9427 143.979 94.5793C143.615 94.2159 143.122 94.0117 142.608 94.0117H64.9936C64.4796 94.0117 63.9867 94.2159 63.6233 94.5793C63.2598 94.9427 63.0557 95.4357 63.0557 95.9496C63.0557 96.4636 63.2598 96.9565 63.6233 97.3199C63.9867 97.6833 64.4796 97.8875 64.9936 97.8875Z" fill="#696FE5"/>
<path d="M64.9936 113.466H103.776C104.29 113.466 104.783 113.261 105.146 112.898C105.51 112.535 105.714 112.042 105.714 111.528C105.714 111.014 105.51 110.521 105.146 110.157C104.783 109.794 104.29 109.59 103.776 109.59H64.9936C64.4796 109.59 63.9867 109.794 63.6233 110.157C63.2598 110.521 63.0557 111.014 63.0557 111.528C63.0557 112.042 63.2598 112.535 63.6233 112.898C63.9867 113.261 64.4796 113.466 64.9936 113.466Z" fill="#696FE5"/>
</g>
<defs>
<clipPath id="clip0_4011_10779">
<rect width="160" height="160" fill="white"/>
</clipPath>
</defs>
</svg>
