<svg width="160" height="124" viewBox="0 0 160 124" fill="none" xmlns="http://www.w3.org/2000/svg">
<path d="M96.301 22.0236V3.96045C96.301 3.40817 95.8533 2.96045 95.301 2.96045H3.96582C3.41353 2.96045 2.96582 3.40816 2.96582 3.96045V66.9993C2.96582 67.5516 3.41354 67.9993 3.96582 67.9993H13.3575C13.9098 67.9993 14.3575 68.4471 14.3575 68.9993V81.9601C14.3575 82.8506 15.4337 83.297 16.0639 82.6679L30.4669 68.2916C30.6544 68.1044 30.9084 67.9993 31.1733 67.9993H95.301C95.8533 67.9993 96.301 67.5516 96.301 66.9993V47.3215" stroke="#696FE5" stroke-width="4" stroke-miterlimit="10" stroke-linecap="round"/>
<path d="M63.7217 55.2159V36.48C63.7217 35.9277 64.1694 35.48 64.7217 35.48H156.057C156.609 35.48 157.057 35.9277 157.057 36.48V99.5189C157.057 100.071 156.609 100.519 156.057 100.519H146.643C146.09 100.519 145.643 100.967 145.643 101.519V114.46C145.643 115.35 144.567 115.796 143.937 115.168L129.533 100.811C129.346 100.624 129.092 100.519 128.827 100.519H64.7217C64.1694 100.519 63.7217 100.071 63.7217 99.5189V68.6722" stroke="#696FE5" stroke-width="4" stroke-miterlimit="10" stroke-linecap="square"/>
</svg>
