<svg width="160" height="147" viewBox="0 0 160 147" fill="none" xmlns="http://www.w3.org/2000/svg">
<path d="M126.015 91.1991V143.098C126.015 143.65 125.567 144.098 125.015 144.098H3.89746C3.34518 144.098 2.89746 143.65 2.89746 143.098V57.5928C2.89746 57.0405 3.34518 56.5928 3.89746 56.5928H84.8733" stroke="#696FE5" stroke-width="4" stroke-miterlimit="10" stroke-linecap="round"/>
<path d="M107.833 95.4202C107.735 95.5783 107.595 95.7061 107.429 95.7891L87.3516 105.802C86.6867 106.134 85.9053 105.65 85.9053 104.907V82.4247C85.9053 82.239 85.957 82.0569 86.0547 81.8989L133.699 4.83133C133.99 4.36108 134.607 4.21595 135.077 4.50736L155.177 16.9746C155.646 17.2654 155.791 17.8811 155.501 18.3504L107.833 95.4202Z" stroke="#696FE5" stroke-width="4" stroke-miterlimit="10" stroke-linecap="square"/>
<path d="M126.806 15.9839L146.74 28.3402" stroke="#696FE5" stroke-width="4" stroke-miterlimit="10" stroke-linecap="square"/>
<path d="M70.4054 109.052H26.0146" stroke="#696FE5" stroke-width="4" stroke-miterlimit="10" stroke-linecap="round"/>
<path d="M58.243 91.6606H26.0146" stroke="#696FE5" stroke-width="4" stroke-miterlimit="10" stroke-linecap="round"/>
</svg>
